<svg width="80" height="80" viewBox="0 0 80 80" fill="none" xmlns="http://www.w3.org/2000/svg">
<path d="M55.3052 25.1C55.3202 25.1 55.3402 25.1 55.3602 25.1C55.8827 25.1 56.3677 25.2625 56.7652 25.5425L56.7577 25.5375C57.0477 25.79 57.2427 26.145 57.2902 26.545V26.5525C57.3402 26.8575 57.3677 27.2075 57.3677 27.565C57.3677 27.7275 57.3627 27.8875 57.3502 28.0475V28.025C56.7877 33.9475 54.3477 48.31 53.1077 54.94C52.5827 57.7475 51.5502 58.6875 50.5502 58.7775C48.3777 58.98 46.7277 57.3425 44.6227 55.9625C41.3277 53.8 39.4652 52.455 36.2677 50.3475C32.5702 47.915 34.9677 46.5725 37.0727 44.3875C37.6252 43.8125 47.2027 35.1 47.3902 34.31C47.4002 34.2625 47.4052 34.21 47.4052 34.155C47.4052 33.96 47.3327 33.7825 47.2152 33.6475C47.0852 33.5625 46.9227 33.515 46.7527 33.515C46.6402 33.515 46.5327 33.5375 46.4327 33.575L46.4377 33.5725C46.1077 33.6475 40.8444 37.1258 30.6477 44.0075C29.5352 44.885 28.1302 45.44 26.6002 45.505H26.5852C24.4177 45.2425 22.4502 44.76 20.5827 44.0725L20.7677 44.1325C18.4227 43.3675 16.5602 42.965 16.7202 41.67C16.8052 40.9967 17.7335 40.3075 19.5052 39.6025C30.4185 34.8475 37.696 31.7133 41.3377 30.2C45.3552 28.0675 50.0127 26.3125 54.9102 25.175L55.3027 25.0975L55.3052 25.1ZM39.8252 2.5625C19.0702 2.6125 2.2627 19.45 2.2627 40.2125C2.2627 61.005 19.1177 77.8625 39.9127 77.8625C60.7077 77.8625 77.5627 61.0075 77.5627 40.2125C77.5627 19.45 60.7552 2.6125 40.0052 2.5625H40.0002C39.9419 2.5625 39.8835 2.5625 39.8252 2.5625Z" fill="#DDFF53"/>
</svg>
