<svg width="80" height="25" viewBox="0 0 80 25" fill="none" xmlns="http://www.w3.org/2000/svg">
<mask id="path-1-outside-1_41_5802" maskUnits="userSpaceOnUse" x="0.714355" y="0.321411" width="48" height="8" fill="black">
<rect fill="white" x="0.714355" y="0.321411" width="48" height="8"/>
<path d="M6.61036 6.21741H5.83436V7.32141H4.57836V6.21741H1.91436V5.08941L4.21836 1.65741H5.82636V5.12941H6.61036V6.21741ZM4.58636 5.12941V3.03341H4.56236L3.21836 5.12941H4.58636ZM8.86852 6.06541C9.02852 6.21474 9.10852 6.39874 9.10852 6.61741C9.10852 6.83608 9.02852 7.02274 8.86852 7.17741C8.71385 7.32674 8.52718 7.40141 8.30852 7.40141C8.08452 7.40141 7.89252 7.32674 7.73252 7.17741C7.57252 7.02808 7.49252 6.84408 7.49252 6.62541C7.49252 6.40674 7.57252 6.22008 7.73252 6.06541C7.89252 5.91074 8.08452 5.83341 8.30852 5.83341C8.52718 5.83341 8.71385 5.91074 8.86852 6.06541ZM14.5292 3.52941C14.5292 4.06808 14.3186 4.65208 13.8972 5.28141L12.5292 7.32141H10.9052L12.3132 5.36941L12.3292 5.34541C12.2119 5.38808 12.0786 5.40941 11.9292 5.40941C11.4172 5.40941 10.9772 5.23608 10.6092 4.88941C10.2466 4.54274 10.0652 4.10008 10.0652 3.56141C10.0652 2.93741 10.2786 2.43874 10.7052 2.06541C11.1319 1.69208 11.6626 1.50541 12.2972 1.50541C12.9319 1.50541 13.4626 1.69208 13.8892 2.06541C14.3159 2.43341 14.5292 2.92141 14.5292 3.52941ZM13.1852 3.51341C13.1852 3.26274 13.1026 3.04941 12.9372 2.87341C12.7772 2.69741 12.5666 2.60941 12.3052 2.60941C12.0386 2.60941 11.8226 2.69474 11.6572 2.86541C11.4919 3.03608 11.4092 3.25474 11.4092 3.52141C11.4092 3.77741 11.4892 3.99074 11.6492 4.16141C11.8146 4.32674 12.0279 4.40941 12.2892 4.40941C12.5559 4.40941 12.7719 4.32674 12.9372 4.16141C13.1026 3.99608 13.1852 3.78008 13.1852 3.51341ZM22.5297 7.32141H20.9297L19.7057 5.07341H19.2417V7.32141H17.8977V1.65741H20.0577C20.3457 1.65741 20.6124 1.68674 20.8577 1.74541C21.103 1.80408 21.3324 1.89741 21.5457 2.02541C21.759 2.15341 21.9244 2.33208 22.0417 2.56141C22.1644 2.79074 22.2257 3.06008 22.2257 3.36941C22.2257 3.74274 22.1217 4.06274 21.9137 4.32941C21.7057 4.59608 21.4177 4.78541 21.0497 4.89741L22.5297 7.32141ZM20.8737 3.39341C20.8737 2.97208 20.5697 2.76141 19.9617 2.76141H19.2337V4.08141H19.8817C20.543 4.08141 20.8737 3.85208 20.8737 3.39341ZM28.7767 7.32141H27.2567L26.8167 6.20941H24.6247L24.2087 7.32141H22.7207L25.0967 1.65741H26.4247L28.7767 7.32141ZM26.4407 5.11341L25.7367 3.16941L25.0167 5.11341H26.4407ZM33.0065 2.82541H31.4065V7.32141H30.0385V2.82541H28.4385V1.65741H33.0065V2.82541ZM35.2212 7.32141H33.8452V1.65741H35.2212V7.32141ZM41.7584 7.32141H40.2064L37.9264 3.61741H37.9024L37.9344 7.32141H36.6064V1.65741H38.1664L40.4384 5.35341H40.4624L40.4304 1.65741H41.7584V7.32141ZM48.173 6.97741C47.549 7.30274 46.821 7.46541 45.989 7.46541C45.077 7.46541 44.3303 7.19074 43.749 6.64141C43.1677 6.08674 42.877 5.36674 42.877 4.48141C42.877 3.59074 43.1677 2.87341 43.749 2.32941C44.3357 1.78008 45.069 1.50541 45.949 1.50541C46.3863 1.50541 46.7997 1.57474 47.189 1.71341C47.5783 1.84674 47.893 2.02808 48.133 2.25741L47.269 3.24141C46.965 2.88941 46.541 2.71341 45.997 2.71341C45.517 2.71341 45.1197 2.88141 44.805 3.21741C44.4903 3.55341 44.333 3.97474 44.333 4.48141C44.333 5.01474 44.485 5.44674 44.789 5.77741C45.093 6.10274 45.517 6.26541 46.061 6.26541C46.397 6.26541 46.6823 6.21474 46.917 6.11341V5.08141H45.837V3.97741H48.173V6.97741Z"/>
</mask>
<path d="M6.61036 6.21741H5.83436V7.32141H4.57836V6.21741H1.91436V5.08941L4.21836 1.65741H5.82636V5.12941H6.61036V6.21741ZM4.58636 5.12941V3.03341H4.56236L3.21836 5.12941H4.58636ZM8.86852 6.06541C9.02852 6.21474 9.10852 6.39874 9.10852 6.61741C9.10852 6.83608 9.02852 7.02274 8.86852 7.17741C8.71385 7.32674 8.52718 7.40141 8.30852 7.40141C8.08452 7.40141 7.89252 7.32674 7.73252 7.17741C7.57252 7.02808 7.49252 6.84408 7.49252 6.62541C7.49252 6.40674 7.57252 6.22008 7.73252 6.06541C7.89252 5.91074 8.08452 5.83341 8.30852 5.83341C8.52718 5.83341 8.71385 5.91074 8.86852 6.06541ZM14.5292 3.52941C14.5292 4.06808 14.3186 4.65208 13.8972 5.28141L12.5292 7.32141H10.9052L12.3132 5.36941L12.3292 5.34541C12.2119 5.38808 12.0786 5.40941 11.9292 5.40941C11.4172 5.40941 10.9772 5.23608 10.6092 4.88941C10.2466 4.54274 10.0652 4.10008 10.0652 3.56141C10.0652 2.93741 10.2786 2.43874 10.7052 2.06541C11.1319 1.69208 11.6626 1.50541 12.2972 1.50541C12.9319 1.50541 13.4626 1.69208 13.8892 2.06541C14.3159 2.43341 14.5292 2.92141 14.5292 3.52941ZM13.1852 3.51341C13.1852 3.26274 13.1026 3.04941 12.9372 2.87341C12.7772 2.69741 12.5666 2.60941 12.3052 2.60941C12.0386 2.60941 11.8226 2.69474 11.6572 2.86541C11.4919 3.03608 11.4092 3.25474 11.4092 3.52141C11.4092 3.77741 11.4892 3.99074 11.6492 4.16141C11.8146 4.32674 12.0279 4.40941 12.2892 4.40941C12.5559 4.40941 12.7719 4.32674 12.9372 4.16141C13.1026 3.99608 13.1852 3.78008 13.1852 3.51341ZM22.5297 7.32141H20.9297L19.7057 5.07341H19.2417V7.32141H17.8977V1.65741H20.0577C20.3457 1.65741 20.6124 1.68674 20.8577 1.74541C21.103 1.80408 21.3324 1.89741 21.5457 2.02541C21.759 2.15341 21.9244 2.33208 22.0417 2.56141C22.1644 2.79074 22.2257 3.06008 22.2257 3.36941C22.2257 3.74274 22.1217 4.06274 21.9137 4.32941C21.7057 4.59608 21.4177 4.78541 21.0497 4.89741L22.5297 7.32141ZM20.8737 3.39341C20.8737 2.97208 20.5697 2.76141 19.9617 2.76141H19.2337V4.08141H19.8817C20.543 4.08141 20.8737 3.85208 20.8737 3.39341ZM28.7767 7.32141H27.2567L26.8167 6.20941H24.6247L24.2087 7.32141H22.7207L25.0967 1.65741H26.4247L28.7767 7.32141ZM26.4407 5.11341L25.7367 3.16941L25.0167 5.11341H26.4407ZM33.0065 2.82541H31.4065V7.32141H30.0385V2.82541H28.4385V1.65741H33.0065V2.82541ZM35.2212 7.32141H33.8452V1.65741H35.2212V7.32141ZM41.7584 7.32141H40.2064L37.9264 3.61741H37.9024L37.9344 7.32141H36.6064V1.65741H38.1664L40.4384 5.35341H40.4624L40.4304 1.65741H41.7584V7.32141ZM48.173 6.97741C47.549 7.30274 46.821 7.46541 45.989 7.46541C45.077 7.46541 44.3303 7.19074 43.749 6.64141C43.1677 6.08674 42.877 5.36674 42.877 4.48141C42.877 3.59074 43.1677 2.87341 43.749 2.32941C44.3357 1.78008 45.069 1.50541 45.949 1.50541C46.3863 1.50541 46.7997 1.57474 47.189 1.71341C47.5783 1.84674 47.893 2.02808 48.133 2.25741L47.269 3.24141C46.965 2.88941 46.541 2.71341 45.997 2.71341C45.517 2.71341 45.1197 2.88141 44.805 3.21741C44.4903 3.55341 44.333 3.97474 44.333 4.48141C44.333 5.01474 44.485 5.44674 44.789 5.77741C45.093 6.10274 45.517 6.26541 46.061 6.26541C46.397 6.26541 46.6823 6.21474 46.917 6.11341V5.08141H45.837V3.97741H48.173V6.97741Z" fill="#DB79E2"/>
<path d="M6.61036 6.21741V6.47455H6.8675V6.21741H6.61036ZM5.83436 6.21741V5.96027H5.57721V6.21741H5.83436ZM5.83436 7.32141V7.57855H6.0915V7.32141H5.83436ZM4.57836 7.32141H4.32121V7.57855H4.57836V7.32141ZM4.57836 6.21741H4.8355V5.96027H4.57836V6.21741ZM1.91436 6.21741H1.65721V6.47455H1.91436V6.21741ZM1.91436 5.08941L1.70086 4.94609L1.65721 5.0111V5.08941H1.91436ZM4.21836 1.65741V1.40027H4.08127L4.00486 1.51409L4.21836 1.65741ZM5.82636 1.65741H6.0835V1.40027H5.82636V1.65741ZM5.82636 5.12941H5.56921V5.38655H5.82636V5.12941ZM6.61036 5.12941H6.8675V4.87227H6.61036V5.12941ZM4.58636 5.12941V5.38655H4.8435V5.12941H4.58636ZM4.58636 3.03341H4.8435V2.77627H4.58636V3.03341ZM4.56236 3.03341V2.77627H4.42177L4.34589 2.89461L4.56236 3.03341ZM3.21836 5.12941L3.00189 4.99061L2.748 5.38655H3.21836V5.12941ZM6.61036 5.96027H5.83436V6.47455H6.61036V5.96027ZM5.57721 6.21741V7.32141H6.0915V6.21741H5.57721ZM5.83436 7.06427H4.57836V7.57855H5.83436V7.06427ZM4.8355 7.32141V6.21741H4.32121V7.32141H4.8355ZM4.57836 5.96027H1.91436V6.47455H4.57836V5.96027ZM2.1715 6.21741V5.08941H1.65721V6.21741H2.1715ZM2.12785 5.23274L4.43185 1.80074L4.00486 1.51409L1.70086 4.94609L2.12785 5.23274ZM4.21836 1.91455H5.82636V1.40027H4.21836V1.91455ZM5.56921 1.65741V5.12941H6.0835V1.65741H5.56921ZM5.82636 5.38655H6.61036V4.87227H5.82636V5.38655ZM6.35321 5.12941V6.21741H6.8675V5.12941H6.35321ZM4.8435 5.12941V3.03341H4.32921V5.12941H4.8435ZM4.58636 2.77627H4.56236V3.29055H4.58636V2.77627ZM4.34589 2.89461L3.00189 4.99061L3.43482 5.26821L4.77882 3.17221L4.34589 2.89461ZM3.21836 5.38655H4.58636V4.87227H3.21836V5.38655ZM8.86852 6.06541L8.68658 6.24735L8.69306 6.2534L8.86852 6.06541ZM8.86852 7.17741L9.04713 7.3624L9.04724 7.36229L8.86852 7.17741ZM7.73252 7.17741L7.55706 7.3654L7.73252 7.17741ZM8.69306 6.2534C8.80101 6.35415 8.85137 6.47009 8.85137 6.61741H9.36566C9.36566 6.3274 9.25602 6.07534 9.04397 5.87743L8.69306 6.2534ZM8.85137 6.61741C8.85137 6.76499 8.80068 6.88534 8.6898 6.99253L9.04724 7.36229C9.25636 7.16014 9.36566 6.90717 9.36566 6.61741H8.85137ZM8.68991 6.99242C8.58408 7.09459 8.46182 7.14427 8.30852 7.14427V7.65855C8.59255 7.65855 8.84361 7.55889 9.04713 7.3624L8.68991 6.99242ZM8.30852 7.14427C8.14795 7.14427 8.01913 7.09317 7.90797 6.98943L7.55706 7.3654C7.7659 7.56031 8.02108 7.65855 8.30852 7.65855V7.14427ZM7.90797 6.98943C7.80002 6.88868 7.74966 6.77273 7.74966 6.62541H7.23537C7.23537 6.91543 7.34501 7.16748 7.55706 7.3654L7.90797 6.98943ZM7.74966 6.62541C7.74966 6.47783 7.80036 6.35748 7.91124 6.25029L7.5538 5.88053C7.34468 6.08268 7.23537 6.33566 7.23537 6.62541H7.74966ZM7.91124 6.25029C8.02293 6.14232 8.15071 6.09055 8.30852 6.09055V5.57627C8.01832 5.57627 7.7621 5.67917 7.5538 5.88053L7.91124 6.25029ZM8.30852 6.09055C8.45896 6.09055 8.58023 6.14078 8.68669 6.24724L9.05034 5.88358C8.84747 5.68071 8.5954 5.57627 8.30852 5.57627V6.09055ZM13.8972 5.28141L14.1108 5.42463L14.1109 5.42447L13.8972 5.28141ZM12.5292 7.32141V7.57855H12.6664L12.7428 7.46463L12.5292 7.32141ZM10.9052 7.32141L10.6967 7.17098L10.4027 7.57855H10.9052V7.32141ZM12.3132 5.36941L12.5219 5.51994L12.5272 5.51205L12.3132 5.36941ZM12.3292 5.34541L12.5432 5.48805L12.978 4.83589L12.2414 5.10375L12.3292 5.34541ZM10.6092 4.88941L10.4316 5.0753L10.4329 5.07658L10.6092 4.88941ZM10.7052 2.06541L10.8746 2.25893L10.7052 2.06541ZM13.8892 2.06541L13.7199 2.25894L13.7213 2.26013L13.8892 2.06541ZM12.9372 2.87341L12.7469 3.04641L12.7498 3.04947L12.9372 2.87341ZM11.6572 2.86541L11.4725 2.68649L11.6572 2.86541ZM11.6492 4.16141L11.4615 4.33737L11.4674 4.34324L11.6492 4.16141ZM12.9372 4.16141L13.1191 4.34324V4.34324L12.9372 4.16141ZM14.2721 3.52941C14.2721 4.00034 14.0876 4.53482 13.6836 5.13836L14.1109 5.42447C14.5495 4.76934 14.7864 4.13582 14.7864 3.52941H14.2721ZM13.6837 5.13819L12.3157 7.17819L12.7428 7.46463L14.1108 5.42463L13.6837 5.13819ZM12.5292 7.06427H10.9052V7.57855H12.5292V7.06427ZM11.1138 7.47184L12.5218 5.51984L12.1047 5.21898L10.6967 7.17098L11.1138 7.47184ZM12.5272 5.51205L12.5432 5.48805L12.1153 5.20277L12.0993 5.22677L12.5272 5.51205ZM12.2414 5.10375C12.1571 5.13439 12.0543 5.15227 11.9292 5.15227V5.66655C12.1028 5.66655 12.2667 5.64177 12.4171 5.58707L12.2414 5.10375ZM11.9292 5.15227C11.4819 5.15227 11.1052 5.00333 10.7856 4.70224L10.4329 5.07658C10.8493 5.46882 11.3526 5.66655 11.9292 5.66655V5.15227ZM10.7869 4.70353C10.479 4.40922 10.3224 4.03563 10.3224 3.56141H9.8081C9.8081 4.16452 10.0141 4.67627 10.4316 5.07529L10.7869 4.70353ZM10.3224 3.56141C10.3224 3.00318 10.5097 2.57818 10.8746 2.25893L10.5359 1.87189C10.0474 2.29931 9.8081 2.87164 9.8081 3.56141H10.3224ZM10.8746 2.25893C11.2487 1.93158 11.7169 1.76255 12.2972 1.76255V1.24827C11.6083 1.24827 11.0151 1.45258 10.5359 1.87189L10.8746 2.25893ZM12.2972 1.76255C12.8776 1.76255 13.3458 1.93158 13.7199 2.25893L14.0586 1.87189C13.5794 1.45258 12.9862 1.24827 12.2972 1.24827V1.76255ZM13.7213 2.26013C14.0864 2.57508 14.2721 2.98951 14.2721 3.52941H14.7864C14.7864 2.85332 14.5454 2.29175 14.0572 1.87069L13.7213 2.26013ZM13.4424 3.51341C13.4424 3.20008 13.3366 2.923 13.1247 2.69735L12.7498 3.04947C12.8685 3.17582 12.9281 3.32541 12.9281 3.51341H13.4424ZM13.1275 2.70044C12.9137 2.4652 12.631 2.35227 12.3052 2.35227V2.86655C12.5021 2.86655 12.6408 2.92963 12.747 3.04638L13.1275 2.70044ZM12.3052 2.35227C11.9783 2.35227 11.6925 2.45949 11.4725 2.68649L11.8419 3.04433C11.9527 2.93 12.0988 2.86655 12.3052 2.86655V2.35227ZM11.4725 2.68649C11.2549 2.91114 11.1521 3.19683 11.1521 3.52141H11.6664C11.6664 3.31265 11.7289 3.16101 11.8419 3.04433L11.4725 2.68649ZM11.1521 3.52141C11.1521 3.83603 11.2526 4.11427 11.4616 4.33728L11.8368 3.98554C11.7259 3.86722 11.6664 3.71879 11.6664 3.52141H11.1521ZM11.4674 4.34324C11.6868 4.56267 11.9685 4.66655 12.2892 4.66655V4.15227C12.0873 4.15227 11.9423 4.09082 11.8311 3.97958L11.4674 4.34324ZM12.2892 4.66655C12.6137 4.66655 12.8986 4.56369 13.1191 4.34324L12.7554 3.97958C12.6452 4.0898 12.4981 4.15227 12.2892 4.15227V4.66655ZM13.1191 4.34324C13.3395 4.12278 13.4424 3.83786 13.4424 3.51341H12.9281C12.9281 3.7223 12.8656 3.86937 12.7554 3.97958L13.1191 4.34324ZM22.5297 7.32141V7.57855H22.988L22.7492 7.18741L22.5297 7.32141ZM20.9297 7.32141L20.7038 7.44438L20.7769 7.57855H20.9297V7.32141ZM19.7057 5.07341L19.9315 4.95045L19.8585 4.81627H19.7057V5.07341ZM19.2417 5.07341V4.81627H18.9845V5.07341H19.2417ZM19.2417 7.32141V7.57855H19.4988V7.32141H19.2417ZM17.8977 7.32141H17.6405V7.57855H17.8977V7.32141ZM17.8977 1.65741V1.40027H17.6405V1.65741H17.8977ZM21.5457 2.02541L21.678 1.80491V1.80491L21.5457 2.02541ZM22.0417 2.56141L21.8127 2.67855L21.8149 2.68269L22.0417 2.56141ZM21.9137 4.32941L22.1164 4.48756L21.9137 4.32941ZM21.0497 4.89741L20.9748 4.65141L20.6572 4.74807L20.8302 5.03141L21.0497 4.89741ZM19.2337 2.76141V2.50427H18.9765V2.76141H19.2337ZM19.2337 4.08141H18.9765V4.33855H19.2337V4.08141ZM22.5297 7.06427H20.9297V7.57855H22.5297V7.06427ZM21.1555 7.19845L19.9315 4.95045L19.4798 5.19638L20.7038 7.44438L21.1555 7.19845ZM19.7057 4.81627H19.2417V5.33055H19.7057V4.81627ZM18.9845 5.07341V7.32141H19.4988V5.07341H18.9845ZM19.2417 7.06427H17.8977V7.57855H19.2417V7.06427ZM18.1548 7.32141V1.65741H17.6405V7.32141H18.1548ZM17.8977 1.91455H20.0577V1.40027H17.8977V1.91455ZM20.0577 1.91455C20.3283 1.91455 20.5747 1.94213 20.7979 1.9955L20.9175 1.49532C20.65 1.43136 20.363 1.40027 20.0577 1.40027V1.91455ZM20.7979 1.9955C21.018 2.04815 21.2229 2.13161 21.4134 2.24591L21.678 1.80491C21.4418 1.66322 21.188 1.56001 20.9175 1.49532L20.7979 1.9955ZM21.4134 2.24591C21.584 2.34826 21.7165 2.49042 21.8128 2.67853L22.2706 2.44429C22.1322 2.17373 21.9341 1.95856 21.678 1.80491L21.4134 2.24591ZM21.8149 2.68269C21.9142 2.86825 21.9685 3.0944 21.9685 3.36941H22.4828C22.4828 3.02576 22.4145 2.71324 22.2684 2.44013L21.8149 2.68269ZM21.9685 3.36941C21.9685 3.69175 21.88 3.95451 21.7109 4.17126L22.1164 4.48756C22.3634 4.17098 22.4828 3.79374 22.4828 3.36941H21.9685ZM21.7109 4.17126C21.5398 4.39059 21.2994 4.55263 20.9748 4.65141L21.1246 5.14341C21.536 5.01819 21.8715 4.80156 22.1164 4.48756L21.7109 4.17126ZM20.8302 5.03141L22.3102 7.45541L22.7492 7.18741L21.2692 4.76341L20.8302 5.03141ZM21.1308 3.39341C21.1308 3.11201 21.024 2.86869 20.7922 2.70806C20.5774 2.55926 20.2874 2.50427 19.9617 2.50427V3.01855C20.2439 3.01855 20.4099 3.06889 20.4992 3.13076C20.5714 3.1808 20.6165 3.25348 20.6165 3.39341H21.1308ZM19.9617 2.50427H19.2337V3.01855H19.9617V2.50427ZM18.9765 2.76141V4.08141H19.4908V2.76141H18.9765ZM19.2337 4.33855H19.8817V3.82427H19.2337V4.33855ZM19.8817 4.33855C20.2341 4.33855 20.5442 4.27888 20.7722 4.12071C21.0174 3.95071 21.1308 3.69339 21.1308 3.39341H20.6165C20.6165 3.5521 20.5647 3.63878 20.4791 3.69811C20.3765 3.76927 20.1906 3.82427 19.8817 3.82427V4.33855ZM28.7767 7.32141V7.57855H29.1619L29.0141 7.2228L28.7767 7.32141ZM27.2567 7.32141L27.0176 7.41602L27.0819 7.57855H27.2567V7.32141ZM26.8167 6.20941L27.0558 6.1148L26.9915 5.95227H26.8167V6.20941ZM24.6247 6.20941V5.95227H24.4463L24.3838 6.11931L24.6247 6.20941ZM24.2087 7.32141V7.57855H24.387L24.4495 7.41151L24.2087 7.32141ZM22.7207 7.32141L22.4835 7.22194L22.3339 7.57855H22.7207V7.32141ZM25.0967 1.65741V1.40027H24.9257L24.8595 1.55794L25.0967 1.65741ZM26.4247 1.65741L26.6621 1.5588L26.5963 1.40027H26.4247V1.65741ZM26.4407 5.11341V5.37055H26.8073L26.6824 5.02585L26.4407 5.11341ZM25.7367 3.16941L25.9784 3.08185L25.7394 2.42171L25.4955 3.0801L25.7367 3.16941ZM25.0167 5.11341L24.7755 5.0241L24.6472 5.37055H25.0167V5.11341ZM28.7767 7.06427H27.2567V7.57855H28.7767V7.06427ZM27.4958 7.2268L27.0558 6.1148L26.5776 6.30402L27.0176 7.41602L27.4958 7.2268ZM26.8167 5.95227H24.6247V6.46655H26.8167V5.95227ZM24.3838 6.11931L23.9678 7.23131L24.4495 7.41151L24.8655 6.29951L24.3838 6.11931ZM24.2087 7.06427H22.7207V7.57855H24.2087V7.06427ZM22.9578 7.42088L25.3338 1.75688L24.8595 1.55794L22.4835 7.22194L22.9578 7.42088ZM25.0967 1.91455H26.4247V1.40027H25.0967V1.91455ZM26.1872 1.75603L28.5392 7.42003L29.0141 7.2228L26.6621 1.5588L26.1872 1.75603ZM26.6824 5.02585L25.9784 3.08185L25.4949 3.25697L26.1989 5.20097L26.6824 5.02585ZM25.4955 3.0801L24.7755 5.0241L25.2578 5.20272L25.9778 3.25872L25.4955 3.0801ZM25.0167 5.37055H26.4407V4.85627H25.0167V5.37055ZM33.0065 2.82541V3.08255H33.2637V2.82541H33.0065ZM31.4065 2.82541V2.56827H31.1494V2.82541H31.4065ZM31.4065 7.32141V7.57855H31.6637V7.32141H31.4065ZM30.0385 7.32141H29.7814V7.57855H30.0385V7.32141ZM30.0385 2.82541H30.2957V2.56827H30.0385V2.82541ZM28.4385 2.82541H28.1814V3.08255H28.4385V2.82541ZM28.4385 1.65741V1.40027H28.1814V1.65741H28.4385ZM33.0065 1.65741H33.2637V1.40027H33.0065V1.65741ZM33.0065 2.56827H31.4065V3.08255H33.0065V2.56827ZM31.1494 2.82541V7.32141H31.6637V2.82541H31.1494ZM31.4065 7.06427H30.0385V7.57855H31.4065V7.06427ZM30.2957 7.32141V2.82541H29.7814V7.32141H30.2957ZM30.0385 2.56827H28.4385V3.08255H30.0385V2.56827ZM28.6957 2.82541V1.65741H28.1814V2.82541H28.6957ZM28.4385 1.91455H33.0065V1.40027H28.4385V1.91455ZM32.7494 1.65741V2.82541H33.2637V1.65741H32.7494ZM35.2212 7.32141V7.57855H35.4784V7.32141H35.2212ZM33.8452 7.32141H33.5881V7.57855H33.8452V7.32141ZM33.8452 1.65741V1.40027H33.5881V1.65741H33.8452ZM35.2212 1.65741H35.4784V1.40027H35.2212V1.65741ZM35.2212 7.06427H33.8452V7.57855H35.2212V7.06427ZM34.1024 7.32141V1.65741H33.5881V7.32141H34.1024ZM33.8452 1.91455H35.2212V1.40027H33.8452V1.91455ZM34.9641 1.65741V7.32141H35.4784V1.65741H34.9641ZM41.7584 7.32141V7.57855H42.0155V7.32141H41.7584ZM40.2064 7.32141L39.9874 7.45621L40.0627 7.57855H40.2064V7.32141ZM37.9264 3.61741L38.1454 3.48262L38.0701 3.36027H37.9264V3.61741ZM37.9024 3.61741V3.36027H37.643L37.6453 3.61963L37.9024 3.61741ZM37.9344 7.32141V7.57855H38.1938L38.1915 7.31919L37.9344 7.32141ZM36.6064 7.32141H36.3493V7.57855H36.6064V7.32141ZM36.6064 1.65741V1.40027H36.3493V1.65741H36.6064ZM38.1664 1.65741L38.3855 1.52275L38.3102 1.40027H38.1664V1.65741ZM40.4384 5.35341L40.2193 5.48807L40.2946 5.61055H40.4384V5.35341ZM40.4624 5.35341V5.61055H40.7218L40.7195 5.35118L40.4624 5.35341ZM40.4304 1.65741V1.40027H40.171L40.1733 1.65964L40.4304 1.65741ZM41.7584 1.65741H42.0155V1.40027H41.7584V1.65741ZM41.7584 7.06427H40.2064V7.57855H41.7584V7.06427ZM40.4254 7.18662L38.1454 3.48262L37.7074 3.75221L39.9874 7.45621L40.4254 7.18662ZM37.9264 3.36027H37.9024V3.87455H37.9264V3.36027ZM37.6453 3.61963L37.6773 7.32363L38.1915 7.31919L38.1595 3.61519L37.6453 3.61963ZM37.9344 7.06427H36.6064V7.57855H37.9344V7.06427ZM36.8635 7.32141V1.65741H36.3493V7.32141H36.8635ZM36.6064 1.91455H38.1664V1.40027H36.6064V1.91455ZM37.9473 1.79207L40.2193 5.48807L40.6575 5.21875L38.3855 1.52275L37.9473 1.79207ZM40.4384 5.61055H40.4624V5.09627H40.4384V5.61055ZM40.7195 5.35118L40.6875 1.65518L40.1733 1.65964L40.2053 5.35564L40.7195 5.35118ZM40.4304 1.91455H41.7584V1.40027H40.4304V1.91455ZM41.5013 1.65741V7.32141H42.0155V1.65741H41.5013ZM48.173 6.97741L48.2919 7.20542L48.4301 7.13334V6.97741H48.173ZM43.749 6.64141L43.5715 6.82746L43.5724 6.82831L43.749 6.64141ZM43.749 2.32941L43.9247 2.51717L43.9247 2.51711L43.749 2.32941ZM47.189 1.71341L47.1027 1.95567L47.1057 1.95668L47.189 1.71341ZM48.133 2.25741L48.3262 2.42707L48.4889 2.24182L48.3106 2.0715L48.133 2.25741ZM47.269 3.24141L47.0744 3.40948L47.2674 3.63297L47.4622 3.41107L47.269 3.24141ZM44.805 3.21741L44.9927 3.39318L44.805 3.21741ZM44.789 5.77741L44.5997 5.95145L44.6011 5.95297L44.789 5.77741ZM46.917 6.11341L47.0189 6.34948L47.1741 6.28246V6.11341H46.917ZM46.917 5.08141H47.1741V4.82427H46.917V5.08141ZM45.837 5.08141H45.5798V5.33855H45.837V5.08141ZM45.837 3.97741V3.72027H45.5798V3.97741H45.837ZM48.173 3.97741H48.4301V3.72027H48.173V3.97741ZM48.0541 6.7494C47.4729 7.05239 46.7871 7.20827 45.989 7.20827V7.72255C46.8549 7.72255 47.625 7.55309 48.2919 7.20542L48.0541 6.7494ZM45.989 7.20827C45.1327 7.20827 44.4524 6.95235 43.9256 6.45451L43.5724 6.82831C44.2082 7.42914 45.0212 7.72255 45.989 7.72255V7.20827ZM43.9265 6.45537C43.4015 5.95443 43.1341 5.30437 43.1341 4.48141H42.6198C42.6198 5.42912 42.9338 6.21906 43.5715 6.82746L43.9265 6.45537ZM43.1341 4.48141C43.1341 3.65257 43.4018 3.00652 43.9247 2.51717L43.5733 2.14165C42.9336 2.7403 42.6198 3.52892 42.6198 4.48141H43.1341ZM43.9247 2.51711C44.4591 2.0168 45.1275 1.76255 45.949 1.76255V1.24827C45.0105 1.24827 44.2123 1.54335 43.5732 2.14171L43.9247 2.51711ZM45.949 1.76255C46.3586 1.76255 46.7427 1.82741 47.1027 1.95565L47.2753 1.47117C46.8567 1.32208 46.414 1.24827 45.949 1.24827V1.76255ZM47.1057 1.95668C47.468 2.08077 47.7479 2.24511 47.9553 2.44332L48.3106 2.0715C48.0381 1.81104 47.6886 1.61272 47.2723 1.47014L47.1057 1.95668ZM47.9398 2.08775L47.0758 3.07175L47.4622 3.41107L48.3262 2.42707L47.9398 2.08775ZM47.4636 3.07334C47.1023 2.65497 46.6017 2.45627 45.997 2.45627V2.97055C46.4803 2.97055 46.8277 3.12385 47.0744 3.40948L47.4636 3.07334ZM45.997 2.45627C45.4493 2.45627 44.9829 2.65128 44.6173 3.04164L44.9927 3.39318C45.2564 3.11154 45.5847 2.97055 45.997 2.97055V2.45627ZM44.6173 3.04164C44.2534 3.43026 44.0758 3.91661 44.0758 4.48141H44.5901C44.5901 4.03288 44.7273 3.67656 44.9927 3.39318L44.6173 3.04164ZM44.0758 4.48141C44.0758 5.0664 44.2441 5.56467 44.5997 5.95145L44.9783 5.60338C44.7259 5.32882 44.5901 4.96309 44.5901 4.48141H44.0758ZM44.6011 5.95297C44.9642 6.34158 45.4628 6.52255 46.061 6.52255V6.00827C45.5712 6.00827 45.2217 5.86391 44.9769 5.60185L44.6011 5.95297ZM46.061 6.52255C46.4216 6.52255 46.7437 6.46835 47.0189 6.34948L46.815 5.87734C46.621 5.96114 46.3724 6.00827 46.061 6.00827V6.52255ZM47.1741 6.11341V5.08141H46.6598V6.11341H47.1741ZM46.917 4.82427H45.837V5.33855H46.917V4.82427ZM46.0941 5.08141V3.97741H45.5798V5.08141H46.0941ZM45.837 4.23455H48.173V3.72027H45.837V4.23455ZM47.9158 3.97741V6.97741H48.4301V3.97741H47.9158Z" fill="#1A1A1A" mask="url(#path-1-outside-1_41_5802)"/>
<path d="M8.12519 10.9114L9.83519 14.3039C9.84522 14.3241 9.86003 14.3414 9.87834 14.3545C9.89665 14.3676 9.91788 14.376 9.94019 14.3789L13.7502 14.9214C13.7777 14.9248 13.8036 14.9361 13.8247 14.9539C13.8459 14.9718 13.8614 14.9954 13.8694 15.0219C13.8773 15.0484 13.8774 15.0767 13.8695 15.1033C13.8617 15.1298 13.8463 15.1535 13.8252 15.1714L11.0752 17.7964C11.0584 17.8127 11.046 17.8328 11.039 17.8551C11.032 17.8774 11.0307 17.901 11.0352 17.9239L11.6852 21.6439C11.6901 21.6698 11.6876 21.6965 11.678 21.721C11.6684 21.7454 11.6521 21.7667 11.6309 21.7824C11.6098 21.798 11.5847 21.8074 11.5585 21.8095C11.5323 21.8115 11.506 21.8061 11.4827 21.7939L8.06519 20.0439C8.04496 20.034 8.02272 20.0288 8.00019 20.0288C7.97765 20.0288 7.95542 20.034 7.93519 20.0439L4.51769 21.7939C4.49438 21.8061 4.46812 21.8115 4.4419 21.8095C4.41568 21.8074 4.39056 21.798 4.36942 21.7824C4.34829 21.7667 4.33199 21.7454 4.3224 21.721C4.31281 21.6965 4.31031 21.6698 4.31519 21.6439L4.96519 17.9239C4.96967 17.901 4.96837 17.8774 4.96138 17.8551C4.95439 17.8328 4.94195 17.8127 4.92519 17.7964L2.17519 15.1664C2.1541 15.1485 2.13869 15.1248 2.13084 15.0982C2.123 15.0717 2.12305 15.0434 2.13101 15.0169C2.13896 14.9904 2.15447 14.9668 2.17564 14.9489C2.1968 14.9311 2.22271 14.9198 2.25019 14.9164L6.06519 14.3739C6.08749 14.371 6.10872 14.3626 6.12703 14.3495C6.14534 14.3364 6.16016 14.3191 6.17019 14.2989L7.87519 10.9114C7.88686 10.8883 7.90472 10.8688 7.92679 10.8553C7.94886 10.8417 7.97427 10.8345 8.00019 10.8345C8.0261 10.8345 8.05151 10.8417 8.07358 10.8553C8.09565 10.8688 8.11351 10.8883 8.12519 10.9114Z" fill="#FFC107" stroke="#1A1A1A" stroke-width="0.429032"/>
<path d="M24.1252 10.9114L25.8352 14.3039C25.8452 14.3241 25.86 14.3414 25.8783 14.3545C25.8966 14.3676 25.9179 14.376 25.9402 14.3789L29.7502 14.9214C29.7777 14.9248 29.8036 14.9361 29.8247 14.9539C29.8459 14.9718 29.8614 14.9954 29.8694 15.0219C29.8773 15.0484 29.8774 15.0767 29.8695 15.1033C29.8617 15.1298 29.8463 15.1535 29.8252 15.1714L27.0752 17.7964C27.0584 17.8127 27.046 17.8328 27.039 17.8551C27.032 17.8774 27.0307 17.901 27.0352 17.9239L27.6852 21.6439C27.6901 21.6698 27.6876 21.6965 27.678 21.721C27.6684 21.7454 27.6521 21.7667 27.6309 21.7824C27.6098 21.798 27.5847 21.8074 27.5585 21.8095C27.5323 21.8115 27.506 21.8061 27.4827 21.7939L24.0652 20.0439C24.045 20.034 24.0227 20.0288 24.0002 20.0288C23.9777 20.0288 23.9554 20.034 23.9352 20.0439L20.5177 21.7939C20.4944 21.8061 20.4681 21.8115 20.4419 21.8095C20.4157 21.8074 20.3906 21.798 20.3694 21.7824C20.3483 21.7667 20.332 21.7454 20.3224 21.721C20.3128 21.6965 20.3103 21.6698 20.3152 21.6439L20.9652 17.9239C20.9697 17.901 20.9684 17.8774 20.9614 17.8551C20.9544 17.8328 20.942 17.8127 20.9252 17.7964L18.1752 15.1664C18.1541 15.1485 18.1387 15.1248 18.1308 15.0982C18.123 15.0717 18.1231 15.0434 18.131 15.0169C18.139 14.9904 18.1545 14.9668 18.1756 14.9489C18.1968 14.9311 18.2227 14.9198 18.2502 14.9164L22.0652 14.3739C22.0875 14.371 22.1087 14.3626 22.127 14.3495C22.1453 14.3364 22.1602 14.3191 22.1702 14.2989L23.8752 10.9114C23.8869 10.8883 23.9047 10.8688 23.9268 10.8553C23.9489 10.8417 23.9743 10.8345 24.0002 10.8345C24.0261 10.8345 24.0515 10.8417 24.0736 10.8553C24.0956 10.8688 24.1135 10.8883 24.1252 10.9114Z" fill="#FFC107" stroke="#1A1A1A" stroke-width="0.429032"/>
<path d="M40.1252 10.9114L41.8352 14.3039C41.8452 14.3241 41.86 14.3414 41.8783 14.3545C41.8966 14.3676 41.9179 14.376 41.9402 14.3789L45.7502 14.9214C45.7777 14.9248 45.8036 14.9361 45.8247 14.9539C45.8459 14.9718 45.8614 14.9954 45.8694 15.0219C45.8773 15.0484 45.8774 15.0767 45.8695 15.1033C45.8617 15.1298 45.8463 15.1535 45.8252 15.1714L43.0752 17.7964C43.0584 17.8127 43.046 17.8328 43.039 17.8551C43.032 17.8774 43.0307 17.901 43.0352 17.9239L43.6852 21.6439C43.6901 21.6698 43.6876 21.6965 43.678 21.721C43.6684 21.7454 43.6521 21.7667 43.6309 21.7824C43.6098 21.798 43.5847 21.8074 43.5585 21.8095C43.5323 21.8115 43.506 21.8061 43.4827 21.7939L40.0652 20.0439C40.045 20.034 40.0227 20.0288 40.0002 20.0288C39.9777 20.0288 39.9554 20.034 39.9352 20.0439L36.5177 21.7939C36.4944 21.8061 36.4681 21.8115 36.4419 21.8095C36.4157 21.8074 36.3906 21.798 36.3694 21.7824C36.3483 21.7667 36.332 21.7454 36.3224 21.721C36.3128 21.6965 36.3103 21.6698 36.3152 21.6439L36.9652 17.9239C36.9697 17.901 36.9684 17.8774 36.9614 17.8551C36.9544 17.8328 36.942 17.8127 36.9252 17.7964L34.1752 15.1664C34.1541 15.1485 34.1387 15.1248 34.1308 15.0982C34.123 15.0717 34.1231 15.0434 34.131 15.0169C34.139 14.9904 34.1545 14.9668 34.1756 14.9489C34.1968 14.9311 34.2227 14.9198 34.2502 14.9164L38.0652 14.3739C38.0875 14.371 38.1087 14.3626 38.127 14.3495C38.1453 14.3364 38.1602 14.3191 38.1702 14.2989L39.8752 10.9114C39.8869 10.8883 39.9047 10.8688 39.9268 10.8553C39.9489 10.8417 39.9743 10.8345 40.0002 10.8345C40.0261 10.8345 40.0515 10.8417 40.0736 10.8553C40.0956 10.8688 40.1135 10.8883 40.1252 10.9114Z" fill="#FFC107" stroke="#1A1A1A" stroke-width="0.429032"/>
<path d="M56.1252 10.9114L57.8352 14.3039C57.8452 14.3241 57.86 14.3414 57.8783 14.3545C57.8966 14.3676 57.9179 14.376 57.9402 14.3789L61.7502 14.9214C61.7777 14.9248 61.8036 14.9361 61.8247 14.9539C61.8459 14.9718 61.8614 14.9954 61.8694 15.0219C61.8773 15.0484 61.8774 15.0767 61.8695 15.1033C61.8617 15.1298 61.8463 15.1535 61.8252 15.1714L59.0752 17.7964C59.0584 17.8127 59.046 17.8328 59.039 17.8551C59.032 17.8774 59.0307 17.901 59.0352 17.9239L59.6852 21.6439C59.6901 21.6698 59.6876 21.6965 59.678 21.721C59.6684 21.7454 59.6521 21.7667 59.6309 21.7824C59.6098 21.798 59.5847 21.8074 59.5585 21.8095C59.5323 21.8115 59.506 21.8061 59.4827 21.7939L56.0652 20.0439C56.045 20.034 56.0227 20.0288 56.0002 20.0288C55.9777 20.0288 55.9554 20.034 55.9352 20.0439L52.5177 21.7939C52.4944 21.8061 52.4681 21.8115 52.4419 21.8095C52.4157 21.8074 52.3906 21.798 52.3694 21.7824C52.3483 21.7667 52.332 21.7454 52.3224 21.721C52.3128 21.6965 52.3103 21.6698 52.3152 21.6439L52.9652 17.9239C52.9697 17.901 52.9684 17.8774 52.9614 17.8551C52.9544 17.8328 52.942 17.8127 52.9252 17.7964L50.1752 15.1664C50.1541 15.1485 50.1387 15.1248 50.1308 15.0982C50.123 15.0717 50.1231 15.0434 50.131 15.0169C50.139 14.9904 50.1545 14.9668 50.1756 14.9489C50.1968 14.9311 50.2227 14.9198 50.2502 14.9164L54.0652 14.3739C54.0875 14.371 54.1087 14.3626 54.127 14.3495C54.1453 14.3364 54.1602 14.3191 54.1702 14.2989L55.8752 10.9114C55.8869 10.8883 55.9047 10.8688 55.9268 10.8553C55.9489 10.8417 55.9743 10.8345 56.0002 10.8345C56.0261 10.8345 56.0515 10.8417 56.0736 10.8553C56.0956 10.8688 56.1135 10.8883 56.1252 10.9114Z" fill="#FFC107" stroke="#1A1A1A" stroke-width="0.429032"/>
<path d="M72.1252 10.9114L73.8352 14.3039C73.8452 14.3241 73.86 14.3414 73.8783 14.3545C73.8966 14.3676 73.9179 14.376 73.9402 14.3789L77.7502 14.9214C77.7777 14.9248 77.8036 14.9361 77.8247 14.9539C77.8459 14.9718 77.8614 14.9954 77.8694 15.0219C77.8773 15.0484 77.8774 15.0767 77.8695 15.1033C77.8617 15.1298 77.8463 15.1535 77.8252 15.1714L75.0752 17.7964C75.0584 17.8127 75.046 17.8328 75.039 17.8551C75.032 17.8774 75.0307 17.901 75.0352 17.9239L75.6852 21.6439C75.6901 21.6698 75.6876 21.6965 75.678 21.721C75.6684 21.7454 75.6521 21.7667 75.6309 21.7824C75.6098 21.798 75.5847 21.8074 75.5585 21.8095C75.5323 21.8115 75.506 21.8061 75.4827 21.7939L72.0652 20.0439C72.045 20.034 72.0227 20.0288 72.0002 20.0288C71.9777 20.0288 71.9554 20.034 71.9352 20.0439L68.5177 21.7939C68.4944 21.8061 68.4681 21.8115 68.4419 21.8095C68.4157 21.8074 68.3906 21.798 68.3694 21.7824C68.3483 21.7667 68.332 21.7454 68.3224 21.721C68.3128 21.6965 68.3103 21.6698 68.3152 21.6439L68.9652 17.9239C68.9697 17.901 68.9684 17.8774 68.9614 17.8551C68.9544 17.8328 68.942 17.8127 68.9252 17.7964L66.1752 15.1664C66.1541 15.1485 66.1387 15.1248 66.1308 15.0982C66.123 15.0717 66.1231 15.0434 66.131 15.0169C66.139 14.9904 66.1545 14.9668 66.1756 14.9489C66.1968 14.9311 66.2227 14.9198 66.2502 14.9164L70.0652 14.3739C70.0875 14.371 70.1087 14.3626 70.127 14.3495C70.1453 14.3364 70.1602 14.3191 70.1702 14.2989L71.8752 10.9114C71.8869 10.8883 71.9047 10.8688 71.9268 10.8553C71.9489 10.8417 71.9743 10.8345 72.0002 10.8345C72.0261 10.8345 72.0515 10.8417 72.0736 10.8553C72.0956 10.8688 72.1135 10.8883 72.1252 10.9114Z" fill="#FFC107" stroke="#1A1A1A" stroke-width="0.429032"/>
</svg>
