<svg width="80" height="80" viewBox="0 0 80 80" fill="none" xmlns="http://www.w3.org/2000/svg">
<path d="M46.4121 39.3316L37.4281 35.1396C36.6441 34.7756 36.0001 35.1836 36.0001 36.0516V43.9476C36.0001 44.8156 36.6441 45.2236 37.4281 44.8596L46.4081 40.6676C47.1961 40.2996 47.1961 39.6996 46.4121 39.3316ZM40.0001 1.59961C18.7921 1.59961 1.6001 18.7916 1.6001 39.9996C1.6001 61.2076 18.7921 78.3996 40.0001 78.3996C61.2081 78.3996 78.4001 61.2076 78.4001 39.9996C78.4001 18.7916 61.2081 1.59961 40.0001 1.59961ZM40.0001 55.5996C20.3441 55.5996 20.0001 53.8276 20.0001 39.9996C20.0001 26.1716 20.3441 24.3996 40.0001 24.3996C59.6561 24.3996 60.0001 26.1716 60.0001 39.9996C60.0001 53.8276 59.6561 55.5996 40.0001 55.5996Z" fill="#DDFF53"/>
</svg>
