<svg width="261" height="155" viewBox="0 0 261 155" fill="none" xmlns="http://www.w3.org/2000/svg">
<mask id="mask0_41_6980" style="mask-type:luminance" maskUnits="userSpaceOnUse" x="-57" y="31" width="298" height="168">
<path d="M236.359 169.462C234.815 173.239 232.2 176.597 229.375 179.659C227.645 181.516 225.412 183.306 223.105 184.66C221.223 185.76 219.61 187.18 217.727 188.248C215.01 189.784 212.004 190.252 208.863 188.047C205.073 185.385 202.477 181.3 198.479 178.857C194.884 176.668 190.18 174.572 186.155 175.081C183.883 175.374 181.71 175.309 179.56 175.95C177.012 176.704 174.826 178.062 172.685 179.34C171.201 180.22 169.863 181.769 168.689 182.899C167.147 184.38 165.645 185.929 164.04 187.363C162.56 188.685 160.771 189.65 159.136 190.815C157.5 191.979 154.953 192.906 152.445 192.172C148.476 191.008 145.486 188.175 142.246 185.91C138.159 183.035 132.791 180.765 128.062 182.17C123.079 183.637 119.559 186.534 115.245 188.821C112.851 190.086 111.24 191.883 109.245 193.551C107.645 194.901 105.794 195.852 103.918 196.902C100.512 198.813 96.4127 199.336 91.978 198.011C90.9564 197.708 89.9492 197.508 88.944 197.233C87.5864 196.853 86.5258 196.095 85.3237 195.421C83.0616 194.161 80.8627 192.496 78.4505 191.586C72.975 189.521 66.4416 187.246 60.766 187.777C55.5824 188.263 50.8956 189.631 46.3054 191.272C42.5691 192.604 38.8712 194.358 34.8902 195.239C29.4535 196.442 23.4287 195.054 17.837 193.148C14.577 192.045 11.3226 190.859 8.05002 189.72C4.02858 188.309 0.169403 186.865 -3.67645 185.04C-7.14479 183.394 -10.4231 181.887 -13.7124 179.958C-17.4118 177.792 -21.2104 175.846 -24.8462 173.587C-28.8214 171.121 -32.4581 168.83 -36.0075 165.864C-37.1629 164.898 -38.439 164.066 -39.5372 163.057C-41.2045 161.525 -42.6656 159.708 -44.1569 158.073C-48.7112 153.061 -52.0821 147.417 -55.5537 141.927C-58.7787 136.812 -53.0326 132.734 -49.6082 129.874C-46.1837 127.014 -41.9332 124.853 -38.1495 122.22C-34.3657 119.587 -29.6057 117.754 -27.2506 113.95C-24.274 109.112 -22.7418 102.796 -24.7956 96.8721C-27.0046 90.5116 -31.2991 84.5921 -34.2803 78.4021C-35.5163 75.8361 -36.7442 73.284 -37.8333 70.6895C-39.1544 67.5427 -39.5391 64.1176 -40.1161 60.9073C-40.5217 58.6121 -40.682 55.8976 -40.149 53.7008C-39.6161 51.5041 -38.1648 49.5268 -37.1248 47.5604C-36.8176 46.9826 -36.6065 46.4424 -36.1815 45.9106C-34.3427 43.6016 -31.7726 41.1918 -28.9413 39.7109C-24.999 37.6442 -21.3264 35.3648 -16.9014 33.9377C-13.7936 32.9299 -10.4057 32.8368 -7.04442 32.4649C-4.94555 32.2331 -3.06392 31.8626 -0.916489 31.8537C2.36079 31.8355 5.67937 32.0589 8.95837 32.1058C10.5512 32.1271 11.8986 32.1169 13.5271 32.4635C16.7959 33.1614 19.8892 34.7247 23.1463 35.4179C24.3219 35.6734 24.5004 35.6681 25.8222 36.3135C28.2294 37.4798 31.2389 38.8064 33.2484 40.5044C35.9563 42.7761 38.1754 45.3613 40.5323 47.8715C42.134 49.5712 43.8591 51.2332 45.2885 53.0266C48.2603 56.7757 50.0777 61.0828 52.0949 65.1566C53.4845 67.9545 54.9358 70.7335 55.9003 73.6121C56.2077 74.5268 56.3175 75.4609 56.6793 76.3753C57.787 79.2347 60.1702 82.3028 62.7713 84.5005C68.4261 89.266 75.2664 90.6511 81.7856 88.518C86.0638 87.1194 89.7241 84.0728 92.9858 81.5254C96.5297 78.7769 99.8431 76.7221 103.984 74.5291C108.845 71.9518 114.171 69.9212 119.812 68.3682C124.57 67.0607 129.231 66.6276 134.41 66.2575C138.639 65.9564 143.33 65.9323 147.679 66.6768C149.216 66.9448 150.852 67.5517 152.381 67.9453C155.598 68.7735 158.7 69.4488 161.779 70.7704C168.354 73.5979 175.624 77.5989 179.471 83.2041C180.957 85.3739 182.025 86.8759 181.451 89.2494C181.086 90.7388 180.533 92.0475 180.443 93.6333C184.676 92.765 188.738 91.5393 192.991 90.6895C196.979 89.8966 201.429 90.3152 205.658 90.6046C210.785 90.9553 215.456 93.1352 220.278 95.1703C222.505 96.1049 224.029 97.3772 225.98 98.7732C227.476 99.841 228.859 100.747 230.107 101.997C235.839 107.78 234.299 115.263 232.451 121.101C231.733 123.354 230.398 125.452 228.838 127.29C227.776 128.55 226.537 129.741 225.439 130.986C224.956 131.528 224.161 132.14 224.001 132.862C223.531 134.932 229.223 135.922 230.798 136.334C232.104 136.673 233.79 136.838 235.034 137.475C236.416 138.176 237.922 139.494 238.937 140.578C239.952 141.662 239.935 142.085 240.099 143.577C240.19 144.418 240.503 145.216 240.641 146.043C240.89 147.558 240.483 149.224 240.409 150.698C240.356 151.805 240.18 152.638 239.827 153.681C239.134 155.73 238.888 157.888 238.208 159.941C237.671 161.557 236.777 163.29 236.974 165.042C237.114 166.246 237.013 168.032 236.788 169.232C236.58 170.353 236.082 171.49 234.556 171.194" fill="white"/>
</mask>
<g mask="url(#mask0_41_6980)">
<path d="M236.359 169.462C234.815 173.239 232.2 176.597 229.375 179.659C227.645 181.516 225.412 183.306 223.105 184.66C221.223 185.76 219.61 187.18 217.727 188.248C215.01 189.784 212.004 190.252 208.863 188.047C205.073 185.385 202.477 181.3 198.479 178.857C194.884 176.668 190.18 174.572 186.155 175.081C183.883 175.374 181.71 175.309 179.56 175.95C177.012 176.704 174.826 178.062 172.685 179.34C171.201 180.22 169.863 181.769 168.689 182.899C167.147 184.38 165.645 185.929 164.04 187.363C162.56 188.685 160.771 189.65 159.136 190.815C157.5 191.979 154.953 192.906 152.445 192.172C148.476 191.008 145.486 188.175 142.246 185.91C138.159 183.035 132.791 180.765 128.062 182.17C123.079 183.637 119.559 186.534 115.245 188.821C112.851 190.086 111.24 191.883 109.245 193.551C107.645 194.901 105.794 195.852 103.918 196.902C100.512 198.813 96.4127 199.336 91.978 198.011C90.9564 197.708 89.9492 197.508 88.944 197.233C87.5864 196.853 86.5258 196.095 85.3237 195.421C83.0616 194.161 80.8627 192.496 78.4505 191.586C72.975 189.521 66.4416 187.246 60.766 187.777C55.5824 188.263 50.8956 189.631 46.3054 191.272C42.5691 192.604 38.8712 194.358 34.8902 195.239C29.4535 196.442 23.4287 195.054 17.837 193.148C14.577 192.045 11.3226 190.859 8.05002 189.72C4.02858 188.309 0.169403 186.865 -3.67645 185.04C-7.14479 183.394 -10.4231 181.887 -13.7124 179.958C-17.4118 177.792 -21.2104 175.846 -24.8462 173.587C-28.8214 171.121 -32.4581 168.83 -36.0075 165.864C-37.1629 164.898 -38.439 164.066 -39.5372 163.057C-41.2045 161.525 -42.6656 159.708 -44.1569 158.073C-48.7112 153.061 -52.0821 147.417 -55.5537 141.927C-58.7787 136.812 -53.0326 132.734 -49.6082 129.874C-46.1837 127.014 -41.9332 124.853 -38.1495 122.22C-34.3657 119.587 -29.6057 117.754 -27.2506 113.95C-24.274 109.112 -22.7418 102.796 -24.7956 96.8721C-27.0046 90.5116 -31.2991 84.5921 -34.2803 78.4021C-35.5163 75.8361 -36.7442 73.284 -37.8333 70.6895C-39.1544 67.5427 -39.5391 64.1176 -40.1161 60.9073C-40.5217 58.6121 -40.682 55.8976 -40.149 53.7008C-39.6161 51.5041 -38.1648 49.5268 -37.1248 47.5604C-36.8176 46.9826 -36.6065 46.4424 -36.1815 45.9106C-34.3427 43.6016 -31.7726 41.1918 -28.9413 39.7109C-24.999 37.6442 -21.3264 35.3648 -16.9014 33.9377C-13.7936 32.9299 -10.4057 32.8368 -7.04442 32.4649C-4.94555 32.2331 -3.06392 31.8626 -0.916489 31.8537C2.36079 31.8355 5.67937 32.0589 8.95837 32.1058C10.5512 32.1271 11.8986 32.1169 13.5271 32.4635C16.7959 33.1614 19.8892 34.7247 23.1463 35.4179C24.3219 35.6734 24.5004 35.6681 25.8222 36.3135C28.2294 37.4798 31.2389 38.8064 33.2484 40.5044C35.9563 42.7761 38.1754 45.3613 40.5323 47.8715C42.134 49.5712 43.8591 51.2332 45.2885 53.0266C48.2603 56.7757 50.0777 61.0828 52.0949 65.1566C53.4845 67.9545 54.9358 70.7335 55.9003 73.6121C56.2077 74.5268 56.3175 75.4609 56.6793 76.3753C57.787 79.2347 60.1702 82.3028 62.7713 84.5005C68.4261 89.266 75.2664 90.6511 81.7856 88.518C86.0638 87.1194 89.7241 84.0728 92.9858 81.5254C96.5297 78.7769 99.8431 76.7221 103.984 74.5291C108.845 71.9518 114.171 69.9212 119.812 68.3682C124.57 67.0607 129.231 66.6276 134.41 66.2575C138.639 65.9564 143.33 65.9323 147.679 66.6768C149.216 66.9448 150.852 67.5517 152.381 67.9453C155.598 68.7735 158.7 69.4488 161.779 70.7704C168.354 73.5979 175.624 77.5989 179.471 83.2041C180.957 85.3739 182.025 86.8759 181.451 89.2494C181.086 90.7388 180.533 92.0475 180.443 93.6333C184.676 92.765 188.738 91.5393 192.991 90.6895C196.979 89.8966 201.429 90.3152 205.658 90.6046C210.785 90.9553 215.456 93.1352 220.278 95.1703C222.505 96.1049 224.029 97.3772 225.98 98.7732C227.476 99.841 228.859 100.747 230.107 101.997C235.839 107.78 234.299 115.263 232.451 121.101C231.733 123.354 230.398 125.452 228.838 127.29C227.776 128.55 226.537 129.741 225.439 130.986C224.956 131.528 224.161 132.14 224.001 132.862C223.531 134.932 229.223 135.922 230.798 136.334C232.104 136.673 233.79 136.838 235.034 137.475C236.416 138.176 237.922 139.494 238.937 140.578C239.952 141.662 239.935 142.085 240.099 143.577C240.19 144.418 240.503 145.216 240.641 146.043C240.89 147.558 240.483 149.224 240.409 150.698C240.356 151.805 240.18 152.638 239.827 153.681C239.134 155.73 238.888 157.888 238.208 159.941C237.671 161.557 236.777 163.29 236.974 165.042C237.114 166.246 237.013 168.032 236.788 169.232C236.58 170.353 236.082 171.49 234.556 171.194" fill="#FDEA6B"/>
<path d="M234.888 168.886C232.741 173.996 228.872 178.861 224.064 182.275C221.814 183.865 219.469 185.493 217.075 186.93C215.094 188.11 212.625 188.906 210.084 187.354C207.542 185.802 205.57 183.281 203.458 181.254C201.347 179.226 199.258 177.765 196.668 176.442C194.078 175.118 191.391 174.078 188.611 173.797C187.252 173.663 186.039 173.78 184.741 173.906C183.165 174.052 181.586 174.133 180.072 174.432C174.307 175.572 170.262 179.22 166.665 182.731C164.563 184.776 162.553 186.793 160.006 188.449C158.074 189.713 155.9 191.698 152.912 191.013C149.673 190.273 146.881 187.764 144.37 185.892C142.152 184.241 139.767 182.74 137.115 181.714C134.628 180.753 131.891 180.22 129.386 180.519C126.626 180.846 124.163 182.009 121.937 183.19C119.482 184.507 117.227 186.041 114.792 187.376C112.357 188.712 110.435 190.505 108.391 192.261C106.348 194.018 103.921 195.507 101.341 196.517C99.0808 197.405 96.4781 197.676 93.8006 197.167C92.3604 196.893 90.8661 196.481 89.4497 196.078C87.7516 195.597 86.1344 194.492 84.6545 193.592C81.8486 191.883 79.2342 190.518 76.1102 189.415C70.3792 187.379 64.5892 185.91 58.8298 186.655C53.0704 187.399 47.4296 189.264 42.1745 191.322C39.5142 192.365 36.8168 193.469 33.8846 194.062C30.9525 194.655 27.952 194.417 24.9385 193.829C21.925 193.242 18.9004 192.232 15.9412 191.193C12.4884 189.994 9.04735 188.799 5.6164 187.544C-1.17123 185.052 -7.74942 181.955 -13.9906 178.378C-20.1413 174.846 -26.4119 171.483 -32.0931 167.341C-34.8052 165.357 -37.6955 163.24 -39.9285 160.864C-42.0376 158.622 -44.1103 156.288 -45.9591 153.901C-47.9282 151.37 -49.6751 148.723 -51.3522 146.07C-52.1338 144.841 -52.9118 143.603 -53.6781 142.37C-54.4073 141.215 -55.0325 140.176 -54.9914 138.925C-54.9118 136.916 -53.4439 135.278 -52.0389 133.906C-50.4333 132.332 -48.6114 130.865 -46.7516 129.509C-44.4609 127.849 -41.9586 126.411 -39.5404 124.876C-37.2482 123.42 -35.0032 121.947 -32.6631 120.542C-30.323 119.138 -28.2502 117.757 -26.7084 115.826C-25.1666 113.895 -24.2096 111.724 -23.4792 109.508C-21.9899 104.969 -21.9417 100.124 -23.9067 95.2224C-26.0169 89.9634 -29.2957 85.0207 -31.977 79.9035C-33.3913 77.2034 -34.6786 74.4563 -35.8843 71.7088C-37.0901 68.9613 -37.7279 66.2534 -38.1969 63.461C-38.666 60.6687 -39.2158 57.9092 -38.8669 55.2111C-38.5179 52.513 -36.7534 50.1857 -35.4961 47.7674C-33.1079 43.15 -27.5881 40.5188 -22.7417 37.9788C-20.1326 36.6151 -17.4021 35.288 -14.3203 34.6243C-11.4624 34.0127 -8.38435 33.9488 -5.43897 33.5647C-2.20718 33.1422 0.960548 33.0919 4.33456 33.2081C7.47934 33.3206 10.8586 33.0416 14.0285 33.8189C15.8109 34.2579 17.5339 34.9528 19.2581 35.5408C20.7667 36.0553 22.2739 36.3652 23.7917 36.7867C24.9419 37.1074 26.0462 37.7538 27.1081 38.2654C28.5241 38.9477 29.9408 39.6625 31.2377 40.5452C33.9699 42.4076 36.1119 45.0163 38.2617 47.3275C40.4115 49.6386 42.9426 51.9808 44.7884 54.5489C46.5176 56.9641 47.8079 59.5299 49.0593 62.0912C50.3685 64.7824 51.7511 67.4594 52.9868 70.1649C54.2226 72.8704 54.6345 75.7048 56.0633 78.3677C57.3413 80.7568 59.2192 83.0691 61.4322 84.9755C65.6437 88.6079 71.05 90.8498 76.6154 90.7059C82.6347 90.5461 87.2678 87.7187 91.3078 84.638C95.6527 81.3329 100.002 78.1905 105.012 75.5429C110.023 72.8953 115.944 70.5926 121.991 69.1448C128.039 67.6971 134.245 67.2344 140.491 67.2923C143.902 67.3153 147.224 67.6689 150.617 68.6731C153.815 69.6223 157.081 70.2225 160.219 71.4277C165.637 73.5021 171.32 76.5286 175.375 80.422C177.1 82.084 178.859 84.1457 179.716 86.1879C180.739 88.606 179.074 91.0259 178.881 93.3235C178.791 94.3514 180.137 95.0061 181.141 94.7973C186.298 93.7206 191.308 91.8029 196.768 91.5107C201.95 91.2382 207.731 91.6187 212.889 93.4525C215.535 94.3901 218.418 95.4521 220.887 96.7716C223.152 97.9897 225.305 99.7011 227.318 101.218C230.9 103.928 232.482 107.552 232.593 111.225C232.691 114.688 231.912 118.174 230.693 121.294C229.852 123.445 228.469 125.353 226.887 127.107C226.05 128.036 225.165 128.946 224.303 129.866C223.639 130.594 222.806 131.267 222.52 132.207C221.626 135.154 226.559 136.524 229.099 137.141C230.858 137.571 233.018 137.738 234.609 138.597C236.358 139.538 238.308 141.18 238.503 142.867C238.638 144.015 239.041 145.171 239.152 146.31C239.263 147.555 238.995 148.761 238.891 149.965C238.682 152.547 237.842 155.01 237.235 157.5C236.702 159.696 235.452 161.784 235.415 164.1C235.408 164.881 235.961 169.993 234.613 169.831C232.642 169.598 232.53 172.141 234.513 172.38C240.123 173.059 237.962 165.847 238.729 163.119C239.354 160.862 240.148 158.692 240.682 156.388C240.954 155.206 241.383 154.074 241.651 152.902C241.919 151.729 241.939 150.566 242.072 149.394C242.203 148.296 242.318 147.203 242.152 146.065C241.986 144.927 241.65 143.807 241.496 142.674C241.252 140.764 239.762 139.333 238.08 137.945C237.175 137.205 236.169 136.479 235.035 136.015C233.688 135.467 232.212 135.287 230.821 134.958C229.43 134.629 227.841 134.319 226.462 133.716C226.207 133.605 225.732 133.431 225.556 133.222C225.419 133.051 225.471 133.232 225.626 132.938C226.178 131.909 227.443 130.964 228.27 130.096C230.05 128.215 231.689 126.279 232.874 124.047C234.621 120.757 235.524 116.676 235.646 112.891C235.769 109.105 234.807 105.283 231.931 101.947C230.173 99.9181 227.733 98.3846 225.504 96.7619C223.276 95.1391 220.77 93.9128 218.053 92.7756C214.872 91.4358 211.608 90.1707 208.224 89.557C205.068 88.9889 201.729 88.8865 198.61 88.8482C191.861 88.7553 185.932 91.0115 179.701 92.3019L181.961 93.7757C182.171 91.2595 183.723 88.9563 182.829 86.2773C182.138 84.1926 180.517 82.0559 178.917 80.2818C175.125 76.0619 169.747 72.9504 164.377 70.4759C161.307 69.0613 158.201 68.0512 154.944 67.2185C151.687 66.3858 148.358 65.2884 144.95 64.9444C138.331 64.2791 131.599 64.8044 125.343 65.7416C112.953 67.62 101.58 73.0418 92.6835 79.7644C88.4294 82.9761 84.3072 86.9266 78.2077 87.8817C72.1082 88.8368 66.4059 86.4148 62.248 82.1592C59.9099 79.7745 58.3785 77.2004 57.6396 74.3348C56.9006 71.4691 55.3961 68.5834 54.0146 65.7995C51.3753 60.5054 49.152 55.0841 44.8309 50.3782C42.5727 47.928 40.2682 45.492 37.941 43.0793C35.8092 40.861 33.5766 38.7966 30.7169 37.2602C28.3063 35.9637 25.8486 34.6488 23.1686 34.0415C19.7268 33.2653 16.4905 31.5817 13.0186 30.987C9.54661 30.3923 6.09675 30.6437 2.76168 30.5319C-0.573386 30.4202 -3.67884 30.6237 -6.91147 31.0136C-10.1441 31.4036 -13.2485 31.5001 -16.2434 32.2192C-19.2383 32.9383 -21.8654 34.2092 -24.4019 35.5261C-29.4523 38.1367 -34.7493 40.8228 -37.7516 45.2754C-38.4319 46.2871 -38.9187 47.4282 -39.5321 48.4769C-40.2682 49.7353 -41.0197 50.9984 -41.4687 52.3904C-42.2958 54.9231 -42.172 57.7308 -41.7391 60.4768C-41.3062 63.2228 -40.915 66.0062 -40.0825 68.7366C-39.2032 71.6249 -37.7303 74.4875 -36.3833 77.2901C-33.7957 82.682 -30.3788 87.8613 -27.8375 93.2673C-26.6332 95.8102 -25.6564 98.4145 -25.4869 101.036C-25.3175 103.658 -25.7233 106.258 -26.5692 108.666C-27.3569 110.924 -28.42 113.192 -30.1563 114.962C-32.0479 116.885 -34.6425 118.212 -37.0397 119.658C-39.4369 121.105 -41.6985 122.69 -44.0759 124.155C-46.4532 125.62 -48.9005 127.23 -51.0791 129.02C-54.2422 131.627 -58.3927 134.643 -58.084 139.026C-57.9062 141.522 -55.9522 143.918 -54.5182 146.186C-52.8131 148.871 -51.0654 151.551 -49.1181 154.137C-47.1709 156.723 -45.0864 159.063 -42.9386 161.448C-40.7908 163.834 -38.1684 165.804 -35.5751 167.848C-29.9686 172.251 -23.5842 175.809 -17.2741 179.349C-10.964 182.889 -4.44705 186.317 2.43001 188.962C5.92152 190.305 9.46764 191.508 12.9838 192.754C16.1549 193.875 19.3342 195.01 22.5865 195.82C25.5653 196.565 28.637 197.004 31.6055 196.908C34.5739 196.812 37.5156 195.986 40.201 195.017C45.8376 192.99 51.2092 190.634 57.3706 189.52C60.3815 188.968 63.3819 188.756 66.612 189.31C69.8421 189.864 72.6937 190.796 75.6421 191.862C77.1515 192.409 78.6529 192.942 80.0596 193.718C81.5414 194.544 82.9487 195.491 84.4196 196.345C85.8905 197.199 87.2048 198.003 88.8285 198.466C90.4523 198.929 92.0761 199.391 93.6839 199.687C99.7218 200.834 104.543 198.498 108.688 195.738C111.001 194.194 112.71 192.113 115.035 190.574C117.36 189.035 119.945 187.662 122.39 186.234C124.834 184.806 127.435 183.288 130.489 183.043C133.179 182.828 136.03 183.76 138.48 185.061C143.651 187.801 148.382 193.784 154.71 193.702C157.614 193.667 159.61 192.17 161.665 190.837C164.177 189.199 166.28 187.326 168.351 185.29C172.183 181.527 176.381 177.349 182.872 176.675C185.955 176.356 188.784 175.991 191.978 177.089C194.729 178.035 197.528 179.484 199.708 181.302C203.73 184.656 207.421 190.834 213.564 190.808C216.31 190.797 218.567 189.5 220.482 188.176C222.863 186.529 225.441 185.036 227.651 183.237C232.078 179.652 235.696 175.011 237.806 169.995C238.427 168.509 235.485 167.359 234.863 168.845L234.888 168.886Z" fill="#231F20"/>
<path d="M62.981 271.819L-97.6385 23.3502" stroke="#231F20" stroke-width="0.5" stroke-miterlimit="10"/>
<path d="M72.8848 268.282L-87.7347 19.8126" stroke="#231F20" stroke-width="0.5" stroke-miterlimit="10"/>
<path d="M82.8008 264.75L-77.8268 16.2665" stroke="#231F20" stroke-width="0.5" stroke-miterlimit="10"/>
<path d="M92.7046 261.212L-67.9112 12.7334" stroke="#231F20" stroke-width="0.5" stroke-miterlimit="10"/>
<path d="M102.609 257.675L-58.0069 9.19633" stroke="#231F20" stroke-width="0.5" stroke-miterlimit="10"/>
<path d="M112.524 254.142L-48.1031 5.65904" stroke="#231F20" stroke-width="0.5" stroke-miterlimit="10"/>
<path d="M122.432 250.595L-38.1873 2.12606" stroke="#231F20" stroke-width="0.5" stroke-miterlimit="10"/>
<path d="M132.348 247.062L-28.283 -1.41124" stroke="#231F20" stroke-width="0.5" stroke-miterlimit="10"/>
<path d="M142.252 243.525L-18.3675 -4.94377" stroke="#231F20" stroke-width="0.5" stroke-miterlimit="10"/>
<path d="M152.156 239.988L-8.46319 -8.48136" stroke="#231F20" stroke-width="0.5" stroke-miterlimit="10"/>
<path d="M162.072 236.455L1.44059 -12.0187" stroke="#231F20" stroke-width="0.5" stroke-miterlimit="10"/>
<path d="M171.976 232.918L11.3603 -15.5605" stroke="#231F20" stroke-width="0.5" stroke-miterlimit="10"/>
<path d="M181.892 229.385L21.264 -19.0978" stroke="#231F20" stroke-width="0.5" stroke-miterlimit="10"/>
<path d="M191.796 225.848L31.1683 -22.6354" stroke="#231F20" stroke-width="0.5" stroke-miterlimit="10"/>
<path d="M201.7 222.311L41.0839 -26.1679" stroke="#231F20" stroke-width="0.5" stroke-miterlimit="10"/>
<path d="M211.619 218.769L50.988 -29.7052" stroke="#231F20" stroke-width="0.5" stroke-miterlimit="10"/>
<path d="M221.523 215.231L60.904 -33.2377" stroke="#231F20" stroke-width="0.5" stroke-miterlimit="10"/>
<path d="M231.427 211.694L70.8078 -36.7753" stroke="#231F20" stroke-width="0.5" stroke-miterlimit="10"/>
<path d="M241.343 208.161L80.7121 -40.3126" stroke="#231F20" stroke-width="0.5" stroke-miterlimit="10"/>
<path d="M251.247 204.624L90.6276 -43.8451" stroke="#231F20" stroke-width="0.5" stroke-miterlimit="10"/>
<path d="M268.606 151.079L-4.118 248.418" stroke="#231F20" stroke-width="0.5" stroke-miterlimit="10"/>
<path d="M262.774 142.047L-9.95394 239.394" stroke="#231F20" stroke-width="0.5" stroke-miterlimit="10"/>
<path d="M256.938 133.023L-15.7977 230.356" stroke="#231F20" stroke-width="0.5" stroke-miterlimit="10"/>
<path d="M251.102 123.999L-21.6337 221.333" stroke="#231F20" stroke-width="0.5" stroke-miterlimit="10"/>
<path d="M245.27 114.967L-27.4696 212.309" stroke="#231F20" stroke-width="0.5" stroke-miterlimit="10"/>
<path d="M239.434 105.943L-33.3021 203.276" stroke="#231F20" stroke-width="0.5" stroke-miterlimit="10"/>
<path d="M233.59 96.905L-39.138 194.252" stroke="#231F20" stroke-width="0.5" stroke-miterlimit="10"/>
<path d="M227.754 87.8815L-44.974 185.229" stroke="#231F20" stroke-width="0.5" stroke-miterlimit="10"/>
<path d="M221.918 78.8581L-50.806 176.196" stroke="#231F20" stroke-width="0.5" stroke-miterlimit="10"/>
<path d="M216.086 69.8249L-56.6419 167.172" stroke="#231F20" stroke-width="0.5" stroke-miterlimit="10"/>
<path d="M210.25 60.8015L-62.474 158.14" stroke="#231F20" stroke-width="0.5" stroke-miterlimit="10"/>
<path d="M204.414 51.7776L-68.3217 149.111" stroke="#231F20" stroke-width="0.5" stroke-miterlimit="10"/>
<path d="M198.582 42.7448L-74.1576 140.088" stroke="#231F20" stroke-width="0.5" stroke-miterlimit="10"/>
<path d="M192.746 33.7214L-79.9901 131.055" stroke="#231F20" stroke-width="0.5" stroke-miterlimit="10"/>
<path d="M186.914 24.6882L-85.8256 122.031" stroke="#231F20" stroke-width="0.5" stroke-miterlimit="10"/>
<path d="M181.066 15.6599L-91.658 112.998" stroke="#231F20" stroke-width="0.5" stroke-miterlimit="10"/>
<path d="M175.23 6.63694L-97.494 103.975" stroke="#231F20" stroke-width="0.5" stroke-miterlimit="10"/>
<path d="M169.398 -2.39631L-103.33 94.9512" stroke="#231F20" stroke-width="0.5" stroke-miterlimit="10"/>
<path d="M163.562 -11.4197L-109.162 85.9185" stroke="#231F20" stroke-width="0.5" stroke-miterlimit="10"/>
<path d="M157.726 -20.4436L-114.998 76.8946" stroke="#231F20" stroke-width="0.5" stroke-miterlimit="10"/>
</g>
</svg>
