<svg width="370" height="122" viewBox="0 0 370 122" fill="none" xmlns="http://www.w3.org/2000/svg">
<path d="M72.8647 -33.6726C74.0109 -32.4925 74.9556 -31.2024 76.3034 -30.1423C75.661 -39.5331 71.4036 -48.8138 71.1391 -58.2645C70.9753 -64.3749 70.2825 -71.1155 72.7765 -76.9659C74.2502 -80.3962 78.0542 -84.1365 81.0016 -86.9667C89.5794 -95.2073 109.204 -94.8773 120.716 -92.3471C125.49 -91.297 130.201 -89.6069 134.912 -88.6368C142.583 -87.0567 144.094 -88.5768 146.324 -94.0072C149.259 -101.158 148.301 -114.229 163.215 -108.428C166.754 -107.048 169.588 -104.678 173.203 -103.298C175.798 -102.308 177.952 -101.588 180.421 -100.298C183.683 -98.5976 191.933 -94.2572 195.712 -96.3974C200.133 -98.9176 194.805 -104.828 202.564 -105.778C208.333 -106.478 213.283 -102.108 218.964 -101.568C226.32 -100.868 226.912 -106.658 232.416 -108.148C237.921 -109.638 241.876 -101.368 246.902 -103.358C248.275 -105.378 248.073 -108.698 248.804 -110.988C249.95 -114.569 250.844 -117.229 253.401 -120.379C257.885 -125.92 262.999 -128.23 271.464 -128.35C279.978 -128.47 285.697 -127.5 292.448 -123.119C296.844 -120.259 297.953 -116.499 299.628 -112.419C300.51 -110.258 300.409 -105.958 301.87 -104.328C305.082 -103.768 307.475 -106.588 309.642 -108.008C312.413 -109.818 315.688 -111.279 318.963 -112.419C326.016 -114.879 335.476 -114.369 342.403 -111.759C350.414 -108.748 353.425 -105.718 356.36 -99.2076C359.017 -93.3172 357.896 -89.2668 355.667 -83.3464C353.437 -77.4259 351.724 -72.5256 345.351 -68.8853C340.136 -65.9051 332.931 -65.495 329.203 -61.0247C321.268 -51.524 329.115 -39.293 342.013 -36.9428C347.706 -35.9028 353.362 -36.4928 355.793 -31.4724C359.017 -24.8019 354.936 -18.9215 351.989 -12.761C349.923 -8.45068 346.686 -4.27036 345.3 0.23999C343.222 6.9805 346.787 11.5909 351.674 16.6812C355.239 20.4115 358.539 24.3418 363.061 27.4221C368.88 31.3924 371.021 32.7725 369.195 39.143C367.368 45.5135 364.383 52.164 360.113 57.4244C356.775 61.5347 349.18 66.8951 349.785 72.2055C350.301 76.7158 357.166 79.186 358.325 83.8364C360.012 90.5969 356.145 94.2572 348.147 95.7373C344.897 96.3373 341.471 97.4874 338.599 96.7274C334.506 95.6373 330.513 90.8969 327.465 88.5067C320.474 83.0263 315.675 76.3758 308.709 70.9154C301.152 64.9949 294.375 58.4644 284.588 54.8042C280.91 53.424 280.066 53.9341 277.081 56.1042C274.096 58.2744 272.459 60.2846 271.401 63.3648C269.839 67.9552 268.453 73.3856 264.46 77.1259C260.266 81.0462 250.529 84.3164 244.093 83.2663C234.092 81.6362 223.574 77.1359 214.026 74.2556C211.923 73.6256 208.258 71.8454 205.99 71.8055C202.589 71.7454 199.239 74.8557 197.11 76.7458C186.958 85.7565 194.402 113.069 170.659 111.919C161.791 111.488 153.289 106.538 145.984 103.088C136.6 98.6475 132.342 106.178 127.367 111.028C123.689 114.619 116.963 120.689 111.584 121.439C105.501 122.289 96.5701 116.969 91.1539 115.059C86.2541 113.329 81.6566 111.468 76.8576 109.538C62.7502 103.868 48.5925 99.2275 32.9988 97.6974C30.3159 97.4374 25.0004 97.1774 22.5568 96.0673C18.3246 94.1472 16.6872 87.5167 14.8104 84.1764C11.7496 78.686 9.6209 71.8454 13.7523 66.525C17.6571 61.5047 26.6631 57.0143 32.5328 53.4241C36.6516 50.9039 40.9468 48.6837 45.2294 46.3235C47.6226 45.0034 52.7617 43.2733 51.2754 40.8531C48.8822 36.9628 35.4046 37.6428 30.9205 37.3028C27.0914 37.0128 23.1488 37.3628 19.4331 36.8528C14.5333 36.1827 8.36131 34.3626 3.70085 33.0225C-0.1031 31.9224 -0.229059 31.3524 0.325159 27.8321C0.967547 23.7318 2.3405 21.9016 6.95058 19.6815C10.8931 17.7813 14.9238 15.5212 19.1056 13.9711C22.0782 12.871 25.4035 12.5109 28.4013 11.4809C24.3203 3.74026 10.679 0.600021 16.8383 -9.48075C21.5366 -17.1813 37.4703 -13.111 45.1664 -11.6409C56.9939 -9.38075 60.0547 -16.1313 62.8006 -23.7118C63.9594 -26.8921 65.0678 -28.0322 69.5142 -29.0522C73.7212 -30.0223 77.2858 -28.7122 76.2278 -33.6526" fill="#DB79E2"/>
</svg>
